<svg width="22" height="22" viewBox="0 0 22 22" fill="none" xmlns="http://www.w3.org/2000/svg">
<path d="M7.33337 1.83301V4.58301" stroke="#D4D4D4" stroke-width="1.5" stroke-miterlimit="10" stroke-linecap="round" stroke-linejoin="round"/>
<path d="M14.6666 1.83301V4.58301" stroke="#D4D4D4" stroke-width="1.5" stroke-miterlimit="10" stroke-linecap="round" stroke-linejoin="round"/>
<path d="M3.20837 8.33203H18.7917" stroke="#D4D4D4" stroke-width="1.5" stroke-miterlimit="10" stroke-linecap="round" stroke-linejoin="round"/>
<path d="M20.1667 17.4167C20.1667 18.1042 19.9742 18.755 19.635 19.305C19.0025 20.3683 17.8384 21.0833 16.5 21.0833C15.5742 21.0833 14.7309 20.7442 14.0892 20.1667C13.805 19.9283 13.5575 19.635 13.365 19.305C13.0259 18.755 12.8334 18.1042 12.8334 17.4167C12.8334 15.3908 14.4742 13.75 16.5 13.75C17.6 13.75 18.5809 14.2358 19.25 14.9967C19.8184 15.6475 20.1667 16.4908 20.1667 17.4167Z" stroke="#D4D4D4" stroke-width="1.5" stroke-miterlimit="10" stroke-linecap="round" stroke-linejoin="round"/>
<path d="M15.0699 17.4169L15.9774 18.3244L17.9299 16.5186" stroke="#D4D4D4" stroke-width="1.5" stroke-linecap="round" stroke-linejoin="round"/>
<path d="M19.25 7.79134V14.9963C18.5808 14.2355 17.6 13.7497 16.5 13.7497C14.4742 13.7497 12.8333 15.3905 12.8333 17.4163C12.8333 18.1038 13.0258 18.7547 13.365 19.3047C13.5575 19.6347 13.805 19.928 14.0892 20.1663H7.33333C4.125 20.1663 2.75 18.333 2.75 15.583V7.79134C2.75 5.04134 4.125 3.20801 7.33333 3.20801H14.6667C17.875 3.20801 19.25 5.04134 19.25 7.79134Z" stroke="#D4D4D4" stroke-width="1.5" stroke-miterlimit="10" stroke-linecap="round" stroke-linejoin="round"/>
<path d="M10.9959 12.5579H11.0041" stroke="#D4D4D4" stroke-width="1.5" stroke-linecap="round" stroke-linejoin="round"/>
<path d="M7.60308 12.5579H7.61131" stroke="#D4D4D4" stroke-width="1.5" stroke-linecap="round" stroke-linejoin="round"/>
<path d="M7.60308 15.3079H7.61131" stroke="#D4D4D4" stroke-width="1.5" stroke-linecap="round" stroke-linejoin="round"/>
</svg>
