<svg width="55" height="42" viewBox="0 0 55 42" fill="none" xmlns="http://www.w3.org/2000/svg">
<path d="M35.5117 0.555664C39.2175 1.21799 42.8264 2.34588 46.2539 3.91406C52.328 12.9103 55.3534 23.0298 54.2871 34.6953C50.2682 37.6586 45.7899 39.928 41.0342 41.4141C40.1165 40.145 39.2892 38.8122 38.5596 37.4248C40.031 36.8392 41.4555 36.1397 42.8184 35.3291L43.4922 34.9287L42.8447 34.4873C42.471 34.2321 42.098 33.9447 41.7295 33.6416L41.4844 33.4404L41.1982 33.5762C36.9128 35.6068 32.2354 36.6592 27.5 36.6592C22.7646 36.6592 18.0872 35.6068 13.8018 33.5762L13.5244 33.4443L13.2822 33.6328C12.9102 33.9205 12.5292 34.2128 12.1416 34.4961L11.5312 34.9424L12.1816 35.3291C13.5411 36.1379 14.9617 36.8367 16.4297 37.4209C15.6995 38.8088 14.8728 40.1425 13.9561 41.4131C9.20465 39.9212 4.72986 37.651 0.711914 34.6904C-0.198928 24.6163 1.72864 14.4064 8.72461 3.92285C12.1554 2.35444 15.7666 1.2242 19.4746 0.556641C19.9347 1.40873 20.3583 2.28097 20.7373 3.17285L20.8887 3.5293L21.2725 3.47168C25.3966 2.84554 29.5907 2.84551 33.7148 3.47168L34.0986 3.5293L34.25 3.17285C34.6289 2.28072 35.0513 1.40781 35.5117 0.555664ZM18.3545 17.0479C15.2401 17.0481 12.9103 19.8343 12.9102 23.1006C12.9102 26.3757 15.3257 29.1317 18.3633 29.1318C21.4629 29.1318 23.7617 26.3658 23.8125 23.1084C23.8636 19.8264 21.461 17.0479 18.3545 17.0479ZM36.6367 17.0479C33.5181 17.0479 31.1876 19.8338 31.1875 23.1006C31.1875 26.3749 33.5939 29.1318 36.6367 29.1318C39.7366 29.1316 42.0303 26.365 42.0811 23.1084C42.1321 19.8287 39.7493 17.0481 36.6367 17.0479Z" stroke="#8390F8"/>
<path d="M46.5902 3.51743C42.9767 1.85055 39.1619 0.667998 35.2433 0C34.7071 0.965827 34.2219 1.95953 33.7898 2.97696C29.6158 2.34322 25.3711 2.34322 21.197 2.97696C20.7647 1.95964 20.2795 0.965943 19.7435 0C15.8224 0.673639 12.0051 1.85899 8.38794 3.52615C1.20689 14.231 -0.739776 24.67 0.233559 34.9608C4.43896 38.0914 9.146 40.4723 14.1501 42C15.2768 40.4731 16.2739 38.8532 17.1306 37.1575C15.5034 36.5452 13.9328 35.7897 12.437 34.8997C12.8307 34.6121 13.2157 34.3157 13.5877 34.028C17.94 36.0903 22.6903 37.1595 27.4999 37.1595C32.3095 37.1595 37.0598 36.0903 41.4121 34.028C41.7885 34.3375 42.1735 34.6339 42.5628 34.8997C41.0641 35.7911 39.4907 36.5481 37.8605 37.1619C38.7162 38.8568 39.7133 40.4753 40.8411 42C45.8494 40.4784 50.5601 38.0987 54.7662 34.9651C55.9083 23.0311 52.8152 12.688 46.5902 3.51743ZM18.3635 28.632C15.6512 28.632 13.4103 26.1519 13.4103 23.1009C13.4103 20.0498 15.5733 17.5479 18.3549 17.5479C21.1365 17.5479 23.36 20.0498 23.3124 23.1009C23.2648 26.1519 21.1278 28.632 18.3635 28.632ZM36.6363 28.632C33.9196 28.632 31.6874 26.1519 31.6874 23.1009C31.6874 20.0498 33.8504 17.5479 36.6363 17.5479C39.4222 17.5479 41.6284 20.0498 41.5808 23.1009C41.5332 26.1519 39.4005 28.632 36.6363 28.632Z" fill="#B081F7"/>
</svg>
