<svg width="22" height="22" viewBox="0 0 22 22" fill="none" xmlns="http://www.w3.org/2000/svg">
<g clip-path="url(#clip0_269_50)">
<path d="M10.0833 1.83325H8.24998C3.66665 1.83325 1.83331 3.66659 1.83331 8.24992V13.7499C1.83331 18.3333 3.66665 20.1666 8.24998 20.1666H13.75C18.3333 20.1666 20.1666 18.3333 20.1666 13.7499V11.9166" stroke="#D4D4D4" stroke-linecap="round" stroke-linejoin="round"/>
<path d="M14.7032 2.76832L7.47989 9.99165C7.20489 10.2667 6.92989 10.8075 6.87489 11.2017L6.48072 13.9608C6.33406 14.96 7.03989 15.6567 8.03906 15.5192L10.7982 15.125C11.1832 15.07 11.7241 14.795 12.0082 14.52L19.2316 7.29665C20.4782 6.04999 21.0649 4.60165 19.2316 2.76832C17.3982 0.934987 15.9499 1.52165 14.7032 2.76832Z" stroke="#D4D4D4" stroke-miterlimit="10" stroke-linecap="round" stroke-linejoin="round"/>
<path d="M13.6674 3.8042C14.2816 5.99503 15.9958 7.7092 18.1958 8.33253" stroke="#D4D4D4" stroke-miterlimit="10" stroke-linecap="round" stroke-linejoin="round"/>
</g>
<defs>
<clipPath id="clip0_269_50">
<rect width="22" height="22" fill="white"/>
</clipPath>
</defs>
</svg>
