<svg width="512" height="344" viewBox="0 0 512 344" fill="none" xmlns="http://www.w3.org/2000/svg">
<path d="M171.579 323.477C171.579 323.477 177.246 261.388 174.184 231.418" stroke="#303037" stroke-width="3" stroke-miterlimit="10" stroke-linecap="round"/>
<path d="M152.428 253.96C152.428 253.96 123.961 206.595 121.356 206.4C118.75 206.204 104.615 214.869 97.9054 216.629C91.196 218.388 77.256 223.795 76.6046 227.509C75.9532 231.222 82.0113 250.963 87.027 260.085C92.0428 269.206 113.278 311.75 134.579 310.707C155.88 309.6 167.214 300.088 173.728 292.921" stroke="#303037" stroke-width="3" stroke-miterlimit="10" stroke-linecap="round"/>
<path d="M111.65 210.57C111.65 210.57 109.891 192.067 104.484 184.77C99.0778 177.473 83.5745 173.368 76.6697 172C69.7648 170.632 50.9394 165.289 48.2687 172C45.5979 178.711 61.1012 186.007 64.0977 187.115C64.0977 187.115 54.7827 189.07 44.0997 187.767C33.4168 186.464 15.6987 182.945 10.8783 190.307C6.05798 197.67 13.9399 204.511 18.0437 206.465C22.1475 208.42 42.1455 216.629 52.5679 217.867C62.9903 219.104 76.0834 215.717 82.1414 222.818" stroke="#303037" stroke-width="3" stroke-linecap="round" stroke-linejoin="round"/>
<path d="M53.2194 203.989C53.2194 203.989 40.1914 201.839 31.7232 200.536C23.255 199.233 15.3079 199.82 11.9207 201.448" stroke="#303037" stroke-width="3" stroke-linecap="round" stroke-linejoin="round"/>
<path d="M131.257 219.887C131.257 219.887 143.764 177.343 158.095 172.782C172.425 168.221 175.031 168.743 175.031 168.743C175.031 168.743 188.71 181.708 197.374 189.331C206.038 196.953 224.081 208.224 224.081 208.224" stroke="#303037" stroke-width="3" stroke-linecap="round" stroke-linejoin="round"/>
<path d="M212.617 247.25C212.617 247.25 214.31 213.241 211.509 199.885" stroke="#303037" stroke-width="3" stroke-linecap="round" stroke-linejoin="round"/>
<path d="M340.421 323.477C340.421 323.477 334.754 261.388 337.816 231.418" stroke="#303037" stroke-width="3" stroke-miterlimit="10" stroke-linecap="round"/>
<path d="M359.572 253.96C359.572 253.96 388.039 206.595 390.644 206.4C393.25 206.204 407.385 214.869 414.095 216.629C420.804 218.388 434.744 223.795 435.395 227.509C436.047 231.222 429.989 250.963 424.973 260.085C419.957 269.206 398.722 311.75 377.421 310.707C356.12 309.6 344.786 300.088 338.272 292.921" stroke="#303037" stroke-width="3" stroke-miterlimit="10" stroke-linecap="round"/>
<path d="M400.35 210.57C400.35 210.57 402.109 192.067 407.515 184.77C412.922 177.473 428.425 173.368 435.33 172C442.235 170.632 461.061 165.289 463.731 172C466.402 178.711 450.899 186.007 447.902 187.115C447.902 187.115 457.217 189.07 467.9 187.767C478.583 186.464 496.301 182.945 501.122 190.307C505.942 197.67 498.06 204.511 493.956 206.465C489.852 208.42 469.854 216.629 459.432 217.867C449.01 219.104 435.917 215.717 429.859 222.818" stroke="#303037" stroke-width="3" stroke-linecap="round" stroke-linejoin="round"/>
<path d="M458.781 203.989C458.781 203.989 471.809 201.839 480.277 200.536C488.745 199.233 496.692 199.82 500.079 201.448" stroke="#303037" stroke-width="3" stroke-linecap="round" stroke-linejoin="round"/>
<path d="M380.743 219.887C380.743 219.887 368.236 177.343 353.905 172.782C339.575 168.221 336.969 168.743 336.969 168.743C336.969 168.743 323.29 181.708 314.626 189.331C305.962 196.953 287.919 208.224 287.919 208.224" stroke="#303037" stroke-width="3" stroke-linecap="round" stroke-linejoin="round"/>
<path d="M299.383 247.25C299.383 247.25 297.69 213.241 300.491 199.885" stroke="#303037" stroke-width="3" stroke-linecap="round" stroke-linejoin="round"/>
<path d="M334.884 170.632C334.884 170.632 349.932 161.25 350.583 149.979C351.235 138.708 337.881 114.537 325.244 89.0623C310.913 60.0699 290.394 20.979 254.176 20.979C217.958 20.979 196.788 59.0275 183.499 89.0623C172.751 113.429 161.091 144.962 161.417 149.979C162.068 161.25 177.116 170.632 177.116 170.632" stroke="#303037" stroke-width="3" stroke-linecap="round" stroke-linejoin="round"/>
<path d="M294.823 109.585C305.246 117.208 334.103 136.492 329.934 147.959C325.765 159.426 261.667 222.753 255.088 222.753C248.509 222.753 186.17 159.426 182.001 147.959C177.832 136.492 206.689 117.208 217.111 109.585C227.534 101.962 243.623 93.1016 254.632 93.1016C265.641 93.1016 284.401 102.027 294.823 109.585Z" stroke="#303037" stroke-width="3" stroke-linecap="round" stroke-linejoin="round"/>
<path d="M300.881 148.741C303.422 141.77 305.767 136.949 305.767 136.949C305.767 136.949 291.632 138.317 282.838 137.665C274.044 137.014 265.315 132.909 254.632 132.909C243.949 132.909 235.22 136.949 226.426 137.665C217.633 138.382 203.497 136.949 203.497 136.949C203.497 136.949 205.842 141.77 208.383 148.741C213.529 162.944 231.247 184.77 254.567 184.77C277.887 184.77 295.605 162.879 300.751 148.741H300.881Z" stroke="#303037" stroke-width="3" stroke-linecap="round" stroke-linejoin="round"/>
<path d="M237.956 159.426C237.956 159.426 246.034 158.188 254.437 158.188C262.84 158.188 270.787 159.426 270.787 159.426" stroke="#303037" stroke-width="3" stroke-linecap="round" stroke-linejoin="round"/>
<path d="M254.437 141.444V149.132" stroke="#303037" stroke-width="3" stroke-linecap="round" stroke-linejoin="round"/>
</svg>
